UFC 115: Liddell Vs Franklin [SatRiP-XviD-Mp3-ENG][TNTVillage.Scambioetico]



General
Complete name                    : C:UFC.115.PPV.HDTV.XviD-KYR.avi
Format                           : AVI
Format/Info                      : Audio Video Interleave
File size                        : 1.46 GiB
Duration                         : 2h 56mn
Overall bit rate                 : 1 181 Kbps
Writing application              : VirtualDubMod 1.5.10.2 (build 2540/release)
Writing library                  : VirtualDubMod build 2540/release

Video
Format                           : MPEG-4 Visual
Format profile                   : Streaming Video@L1
Format settings, BVOP            : Yes
Format settings, QPel            : No
Format settings, GMC             : No warppoints
Format settings, Matrix          : Default
Codec ID                         : XVID
Codec ID/Hint                    : XviD
Duration                         : 2h 56mn
Bit rate                         : 1 034 Kbps
Width                            : 624 pixels
Height                           : 352 pixels
Display aspect ratio             : 16/9
Frame rate                       : 29.970 fps
Resolution                       : 24 bits
Colorimetry                      : 4:2:0
Scan type                        : Progressive
Bits/(Pixel*Frame)               : 0.157
Stream size                      : 1.28 GiB (88%)
Writing library                  : XviD 55

Audio
Format                           : MPEG Audio
Format version                   : Version 1
Format profile                   : Layer 3
Codec ID                         : 55
Codec ID/Hint                    : MP3
Duration                         : 2h 56mn
Bit rate mode                    : Variable
Bit rate                         : 133 Kbps
Nominal bit rate                 : 128 Kbps
Channel(s)                       : 2 channels
Sampling rate                    : 48.0 KHz
Resolution                       : 16 bits
Stream size                      : 168 MiB (11%)
Alignment                        : Aligned on interleaves
Interleave, duration             : 24 ms (0.72 video frame)
Interleave, preload duration     : 507 ms
Writing library                  : LAME3.90.
Encoding settings                : ABR

 
http://uptiki.com/images/vs0tthpkrhgtlusi044a.png 
http://uptiki.com/images/wjhduq1mgh3b0v08a.png 
http://uptiki.com/images/9ldaagwa2qe3iby6ybur.png 
http://uptiki.com/images/iml7euqlol60v1tlfuyi.png 
http://uptiki.com/images/m4kai4fouyeick8i4zw.png 
http://uptiki.com/images/0fc2hec4du0jop0ok36k.png 
http://uptiki.com/images/j9g7022ovdxhroho4m4.png 
http://uptiki.com/images/9ir24blxlkmhjgr8qd8r.png